<svg width="45" height="45" viewBox="0 0 45 45" fill="none" xmlns="http://www.w3.org/2000/svg">
<rect width="45" height="45" rx="6" fill="white"/>
<path d="M26.1528 15.6402C27.3601 15.6402 28.3479 14.6524 28.3479 13.4451C28.3479 12.2378 27.3601 11.25 26.1528 11.25C24.9455 11.25 23.9577 12.2378 23.9577 13.4451C23.9577 14.6524 24.9455 15.6402 26.1528 15.6402ZM14.6284 22.7744C11.5553 22.7744 9.14062 25.189 9.14062 28.2622C9.14062 31.3354 11.5553 33.75 14.6284 33.75C17.7016 33.75 20.1162 31.3354 20.1162 28.2622C20.1162 25.189 17.7016 22.7744 14.6284 22.7744ZM14.6284 32.1037C12.5431 32.1037 10.787 30.3476 10.787 28.2622C10.787 26.1768 12.5431 24.4207 14.6284 24.4207C16.7138 24.4207 18.4699 26.1768 18.4699 28.2622C18.4699 30.3476 16.7138 32.1037 14.6284 32.1037ZM20.9943 21.128L23.6284 18.4939L24.5065 19.372C25.9333 20.7988 27.7992 21.6768 30.104 21.6768V19.4817C28.4577 19.4817 27.1406 18.8232 26.1528 17.8354L24.0675 15.75C23.5187 15.311 22.9699 15.0915 22.3114 15.0915C21.6528 15.0915 21.104 15.311 20.7748 15.75L17.7016 18.8232C17.2626 19.2622 17.0431 19.811 17.0431 20.3598C17.0431 21.0183 17.2626 21.5671 17.7016 21.8963L21.2138 24.9695V30.4573H23.4089V23.6524L20.9943 21.128ZM29.9943 22.7744C26.9211 22.7744 24.5065 25.189 24.5065 28.2622C24.5065 31.3354 26.9211 33.75 29.9943 33.75C33.0675 33.75 35.4821 31.3354 35.4821 28.2622C35.4821 25.189 33.0675 22.7744 29.9943 22.7744ZM29.9943 32.1037C27.9089 32.1037 26.1528 30.3476 26.1528 28.2622C26.1528 26.1768 27.9089 24.4207 29.9943 24.4207C32.0796 24.4207 33.8357 26.1768 33.8357 28.2622C33.8357 30.3476 32.0796 32.1037 29.9943 32.1037Z" fill="#FF0101"/>
</svg>
