<svg width="45" height="45" viewBox="0 0 45 45" fill="none" xmlns="http://www.w3.org/2000/svg">
<rect width="45" height="45" rx="6" fill="white"/>
<path d="M32.1412 25.7175L33.75 24.1088L32.1412 22.5L28.125 26.5162L18.4838 16.875L22.5 12.8588L20.8912 11.25L19.2825 12.8588L17.6738 11.25L15.2663 13.6575L13.6575 12.0488L12.0488 13.6575L13.6575 15.2663L11.25 17.6738L12.8588 19.2825L11.25 20.8912L12.8588 22.5L16.875 18.4838L26.5162 28.125L22.5 32.1412L24.1088 33.75L25.7175 32.1412L27.3263 33.75L29.7338 31.3425L31.3425 32.9513L32.9513 31.3425L31.3425 29.7338L33.75 27.3263L32.1412 25.7175Z" fill="#FF0101"/>
</svg>
