<svg width="45" height="45" viewBox="0 0 45 45" fill="none" xmlns="http://www.w3.org/2000/svg">
<rect width="45" height="45" rx="6" fill="white"/>
<path d="M22.5 15.4688C24.0533 15.4688 25.3125 14.2096 25.3125 12.6562C25.3125 11.1029 24.0533 9.84375 22.5 9.84375C20.9467 9.84375 19.6875 11.1029 19.6875 12.6562C19.6875 14.2096 20.9467 15.4688 22.5 15.4688Z" fill="#FF0101"/>
<path d="M35.1562 26.7188V23.9062C32.0062 23.9062 29.3062 22.5562 27.2812 20.1375L25.3969 17.8875C24.8625 17.2406 24.075 16.875 23.2453 16.875H21.7687C20.9391 16.875 20.1516 17.2406 19.6172 17.8875L17.7328 20.1375C15.6937 22.5562 12.9938 23.9062 9.84375 23.9062V26.7188C13.7391 26.7188 17.1422 25.0734 19.6875 22.1484V25.3125L14.2312 27.4922C13.2891 27.8719 12.6562 28.8 12.6562 29.8266C12.6562 31.2187 13.7812 32.3438 15.1734 32.3438H18.2812V31.6406C18.2812 29.7 19.8563 28.125 21.7969 28.125H26.0156C26.4094 28.125 26.7188 28.4344 26.7188 28.8281C26.7188 29.2219 26.4094 29.5312 26.0156 29.5312H21.7969C20.6297 29.5312 19.6875 30.4734 19.6875 31.6406V32.3438H29.8266C31.2187 32.3438 32.3438 31.2187 32.3438 29.8266C32.3438 28.8 31.7109 27.8719 30.7687 27.4922L25.3125 25.3125V22.1484C27.8578 25.0734 31.2609 26.7188 35.1562 26.7188Z" fill="#FF0101"/>
</svg>
