<svg width="45" height="45" viewBox="0 0 45 45" fill="none" xmlns="http://www.w3.org/2000/svg">
<rect width="45" height="45" rx="6" fill="white"/>
<path d="M20.625 18.75L17.5781 21.7969C17.8688 21.9094 18.1031 22.05 18.3 22.1625C18.6469 22.3781 18.8531 22.5 19.3781 22.5C19.9031 22.5 20.1094 22.3781 20.4562 22.1625C20.8875 21.9094 21.4688 21.5625 22.5094 21.5625C23.55 21.5625 24.1312 21.9094 24.5531 22.1625C24.9 22.3687 25.1156 22.5 25.6313 22.5C26.1469 22.5 26.3625 22.3781 26.7094 22.1625C26.8219 22.0969 26.9531 22.0219 27.0937 21.9469L21.075 15.9375C19.6219 14.4844 18.2812 14.0531 15.9375 14.0625V16.4062C17.6438 16.3969 18.6469 16.7719 19.6875 17.8125L20.625 18.75ZM31.875 26.7187H31.8562H31.875ZM16.2656 25.7812C16.7812 25.7812 16.9969 25.9125 17.3438 26.1187C17.7656 26.3719 18.3469 26.7187 19.3875 26.7187C20.4281 26.7187 21.0094 26.3719 21.4312 26.1187C21.7781 25.9031 21.9844 25.7812 22.5094 25.7812C23.025 25.7812 23.2406 25.9125 23.5875 26.1187C24.0094 26.3719 24.5906 26.7187 25.6313 26.7187C26.6719 26.7187 27.2531 26.3719 27.675 26.1187C28.0219 25.9031 28.2281 25.7812 28.7531 25.7812C29.2688 25.7812 29.4844 25.9125 29.8312 26.1187C30.2531 26.3719 30.825 26.7094 31.8562 26.7187V24.8437C31.3406 24.8437 31.125 24.7125 30.7781 24.5062C30.3562 24.2531 29.775 23.9062 28.7344 23.9062C27.6937 23.9062 27.1125 24.2531 26.6906 24.5062C26.3437 24.7219 26.1281 24.8437 25.6125 24.8437C25.0969 24.8437 24.8813 24.7125 24.5344 24.5062C24.1125 24.2531 23.5312 23.9062 22.4906 23.9062C21.45 23.9062 20.8688 24.2531 20.4469 24.5062C20.1 24.7219 19.8937 24.8437 19.3687 24.8437C18.8531 24.8437 18.6375 24.7125 18.2906 24.5062C17.8688 24.2531 17.2875 23.9062 16.2469 23.9062C15.2062 23.9062 14.625 24.2531 14.2031 24.5062C13.8563 24.7219 13.65 24.8437 13.125 24.8437V26.7187C14.1656 26.7187 14.7469 26.3719 15.1875 26.1187C15.5344 25.9031 15.75 25.7812 16.2656 25.7812ZM28.7531 28.125C27.7125 28.125 27.1312 28.4719 26.7094 28.725C26.3625 28.9406 26.1469 29.0625 25.6313 29.0625C25.1156 29.0625 24.9 28.9312 24.5531 28.725C24.1312 28.4719 23.55 28.125 22.5094 28.125C21.4688 28.125 20.8875 28.4719 20.4562 28.725C20.1094 28.9406 19.9031 29.0625 19.3781 29.0625C18.8531 29.0625 18.6469 28.9406 18.3 28.725C17.8781 28.4719 17.2969 28.125 16.2563 28.125C15.2156 28.125 14.6344 28.4719 14.2031 28.725C13.8563 28.9406 13.65 29.0625 13.125 29.0625V30.9375C14.1656 30.9375 14.7469 30.5906 15.1781 30.3375C15.525 30.1219 15.7406 30 16.2563 30C16.7719 30 16.9875 30.1219 17.3344 30.3375C17.7562 30.5906 18.3375 30.9375 19.3781 30.9375C20.4188 30.9375 21 30.5906 21.4312 30.3375C21.7781 30.1219 21.9844 30 22.5094 30C23.025 30 23.2406 30.1312 23.5875 30.3375C24.0094 30.5906 24.5906 30.9375 25.6313 30.9375C26.6719 30.9375 27.2438 30.5906 27.675 30.3375C28.0219 30.1219 28.2281 30 28.7531 30C29.2688 30 29.4844 30.1312 29.8312 30.3375C30.2531 30.5906 30.8344 30.9375 31.875 30.9375V29.0625C31.35 29.0625 31.1438 28.9406 30.7969 28.725C30.375 28.4719 29.7938 28.125 28.7531 28.125Z" fill="#FF0101"/>
<path d="M26.7188 18.75C28.0132 18.75 29.0625 17.7007 29.0625 16.4062C29.0625 15.1118 28.0132 14.0625 26.7188 14.0625C25.4243 14.0625 24.375 15.1118 24.375 16.4062C24.375 17.7007 25.4243 18.75 26.7188 18.75Z" fill="#FF0101"/>
</svg>
